<?xml version="1.0" encoding="UTF-8" standalone="no"?>
<svg
   xmlns:dc="http://purl.org/dc/elements/1.1/"
   xmlns:cc="http://creativecommons.org/ns#"
   xmlns:rdf="http://www.w3.org/1999/02/22-rdf-syntax-ns#"
   xmlns:svg="http://www.w3.org/2000/svg"
   xmlns="http://www.w3.org/2000/svg"
   xmlns:sodipodi="http://sodipodi.sourceforge.net/DTD/sodipodi-0.dtd"
   xmlns:inkscape="http://www.inkscape.org/namespaces/inkscape"
   version="1.1"
   id="layer_1"
   x="0px"
   y="0px"
   width="595.28px"
   height="566.929px"
   viewBox="0 0 595.28 566.929"
   enable-background="new 0 0 595.28 566.929"
   xml:space="preserve"
   sodipodi:docname="beam_backends.svg"
   inkscape:version="1.0.2-2 (e86c870879, 2021-01-15)"><metadata
   id="metadata226"><rdf:RDF><cc:Work
       rdf:about=""><dc:format>image/svg+xml</dc:format><dc:type
         rdf:resource="http://purl.org/dc/dcmitype/StillImage" /><dc:title></dc:title></cc:Work></rdf:RDF></metadata><defs
   id="defs224" /><sodipodi:namedview
   pagecolor="#ffffff"
   bordercolor="#666666"
   borderopacity="1"
   objecttolerance="10"
   gridtolerance="10"
   guidetolerance="10"
   inkscape:pageopacity="0"
   inkscape:pageshadow="2"
   inkscape:window-width="1920"
   inkscape:window-height="1001"
   id="namedview222"
   showgrid="false"
   inkscape:zoom="1.4640281"
   inkscape:cx="297.64001"
   inkscape:cy="310.95715"
   inkscape:window-x="-9"
   inkscape:window-y="-9"
   inkscape:window-maximized="1"
   inkscape:current-layer="layer_1" />
<g
   transform="translate(214,230) rotate(25,0,0) scale(18.6,9.5)"
   id="g121">
<path
   fill="#68B82E"
   fill-opacity="0.5"
   d="M17.225,5.061c0,7.212-5.846,13.058-13.058,13.058c-7.212,0-13.058-5.846-13.058-13.058c0-7.212,5.847-13.059,13.059-13.058c7.207,0,13.05,5.839,13.058,13.045"
   id="path119" />
</g>
<g
   transform="translate(232,187) rotate(98,0,0) scale(18.6,9.5)"
   id="g125">
<path
   fill="#36A6DF"
   fill-opacity="0.5"
   d="M16.007-6.704c0,7.212-5.847,13.058-13.058,13.058c-7.212,0-13.058-5.846-13.058-13.058s5.846-13.058,13.058-13.058c7.207,0,13.05,5.839,13.058,13.045"
   id="path123" />
</g>
<g
   transform="translate(273,196) rotate(170,0,0) scale(18.6,9.5)"
   id="g129">
<path
   fill="#E61E66"
   fill-opacity="0.5"
   d="M10.074-8.077c0,7.212-5.846,13.058-13.058,13.058c-7.212,0-13.058-5.846-13.058-13.058s5.847-13.058,13.058-13.058c7.207,0,13.05,5.839,13.058,13.045"
   id="path127" />
</g>
<g
   transform="translate(282,238) rotate(62,0,0) scale(18.6,9.5)"
   id="g133">
<path
   fill="#E2AF49"
   fill-opacity="0.5"
   d="M18.583-2.68c0,7.212-5.846,13.058-13.058,13.058S-7.533,4.531-7.533-2.681s5.846-13.058,13.058-13.058c7.207,0,13.05,5.839,13.058,13.045"
   id="path131" />
</g>
<g
   transform="translate(242,260) rotate(133.99999999999997,0,0) scale(18.6,9.5)"
   id="g137">
<path
   fill="#3DD18A"
   fill-opacity="0.5"
   d="M14.18-10.681c0,7.212-5.846,13.058-13.058,13.058S-11.936-3.47-11.936-10.682S-6.089-23.74,1.122-23.74c7.207,0,13.05,5.839,13.058,13.045"
   id="path135" />
</g>
<g
   enable-background="new    "
   id="g141"
   transform="translate(33.469303,-4.098282)">
<text
   transform="translate(37.5931,152.1423)"
   font-family="Arial"
   text-anchor="middle"
   font-size="18px"
   id="text139">Apache Nemo</text>
</g>
<g
   enable-background="new    "
   id="g145"
   transform="translate(27.32188,-10.928752)">
<text
   transform="translate(397.5569,43.8668)"
   font-family="Arial"
   text-anchor="middle"
   font-size="18px"
   id="text143">Apache Spark</text>
</g>
<g
   enable-background="new    "
   id="g149"
   transform="translate(-30.054068,-24.589692)">
<text
   transform="translate(540.4426,152.1422)"
   font-family="Arial"
   text-anchor="middle"
   font-size="18px"
   id="text147">Apache Zamza</text>
</g>
<g
   enable-background="new    "
   id="g153">
<text
   transform="matrix(1 0 0 1 478.1419 552.139)"
   font-family="Arial"
   text-anchor="middle"
   font-size="18"
   id="text151">Google Cloud Dataflow</text>
</g>
<g
   enable-background="new    "
   id="g157">
<text
   transform="matrix(1 0 0 1 82.4123 545.3763)"
   font-family="Arial"
   text-anchor="middle"
   font-size="18"
   id="text155">Hazelcast Jet</text>
</g>































</svg>
