<?xml version="1.0" encoding="UTF-8" standalone="no"?>
<svg
   xmlns:dc="http://purl.org/dc/elements/1.1/"
   xmlns:cc="http://creativecommons.org/ns#"
   xmlns:rdf="http://www.w3.org/1999/02/22-rdf-syntax-ns#"
   xmlns:svg="http://www.w3.org/2000/svg"
   xmlns="http://www.w3.org/2000/svg"
   xmlns:sodipodi="http://sodipodi.sourceforge.net/DTD/sodipodi-0.dtd"
   xmlns:inkscape="http://www.inkscape.org/namespaces/inkscape"
   version="1.1"
   id="layer_1"
   x="0px"
   y="0px"
   width="595.28px"
   height="566.929px"
   viewBox="0 0 595.28 566.929"
   enable-background="new 0 0 595.28 566.929"
   xml:space="preserve"
   sodipodi:docname="beam_native_runner.svg"
   inkscape:version="1.0.2-2 (e86c870879, 2021-01-15)"><metadata
   id="metadata226"><rdf:RDF><cc:Work
       rdf:about=""><dc:format>image/svg+xml</dc:format><dc:type
         rdf:resource="http://purl.org/dc/dcmitype/StillImage" /><dc:title /></cc:Work></rdf:RDF></metadata><defs
   id="defs224" /><sodipodi:namedview
   pagecolor="#ffffff"
   bordercolor="#666666"
   borderopacity="1"
   objecttolerance="10"
   gridtolerance="10"
   guidetolerance="10"
   inkscape:pageopacity="0"
   inkscape:pageshadow="2"
   inkscape:window-width="1920"
   inkscape:window-height="1001"
   id="namedview222"
   showgrid="false"
   inkscape:zoom="1.0352242"
   inkscape:cx="264.66737"
   inkscape:cy="258.35838"
   inkscape:window-x="-9"
   inkscape:window-y="-9"
   inkscape:window-maximized="1"
   inkscape:current-layer="layer_1"
   inkscape:document-rotation="0" />
<g
   transform="translate(214,230) rotate(25,0,0) scale(18.6,9.5)"
   id="g121">

</g>
<g
   transform="translate(232,187) rotate(98,0,0) scale(18.6,9.5)"
   id="g125">

</g>
<g
   transform="translate(273,196) rotate(170,0,0) scale(18.6,9.5)"
   id="g129">

</g>
<g
   transform="translate(282,238) rotate(62,0,0) scale(18.6,9.5)"
   id="g133">

</g>
<g
   transform="translate(242,260) rotate(133.99999999999997,0,0) scale(18.6,9.5)"
   id="g137">
<path
   id="path135"
   d="m 14.18,-10.681 c 0,7.212 -5.846,13.058 -13.058,13.058 -7.212,0 -13.058,-5.847 -13.058,-13.059 0,-7.212 5.847,-13.058 13.058,-13.058 7.207,0 13.05,5.839 13.058,13.045 M 2.0959193,-36.851102 C 5.599182,-34.622471 6.6323905,-21.930305 4.4037599,-8.501067 2.1751293,4.9281714 -2.4715916,14.007002 -5.9748543,11.778371 -9.478117,9.5497406 -10.511325,-3.1424255 -8.2826949,-16.571664 -6.0556094,-29.991592 -1.4137016,-39.067308 2.0891187,-36.855428 M 6.9419451,7.3914315 C 4.7768097,13.226062 -1.7077482,11.227872 -7.5423788,2.9281463 -13.377009,-5.3715795 -16.351478,-16.828796 -14.186343,-22.663427 c 2.165136,-5.83463 8.6505027,-3.83529 14.48432423,4.463285 C 6.1285667,-9.9061699 9.1027099,1.5419312 6.9458479,7.3809142 M 8.4875647,-17.749751 C 10.6527,-11.915121 7.6774223,-0.45675305 1.8436008,7.8418219 -3.9910298,16.141548 -10.475588,18.139738 -12.640723,12.305107 -14.805859,6.4704765 -11.83139,-4.9867402 -5.9967593,-13.286466 -0.16617379,-21.580438 6.3138556,-23.580838 8.4836619,-17.760268 M -3.2783254,-29.221248 C 0.20453802,-31.569246 4.9309958,-22.650251 7.2789933,-9.2992101 9.6269908,4.0518307 8.7070759,16.777368 5.2242125,19.125366 1.7413491,21.473363 -2.9859171,12.552843 -5.3334317,-0.79852336 -7.6798014,-14.140308 -6.7622903,-26.858013 -3.284929,-29.218867" />
</g>
<g
   enable-background="new    "
   id="g141"
   transform="translate(33.469303,-4.098282)">
<text
   transform="translate(37.5931,152.1423)"
   font-family="Arial"
   text-anchor="middle"
   font-size="18px"
   id="text139">Apache Nemo</text>
</g>
<g
   enable-background="new    "
   id="g145"
   transform="translate(27.32188,-10.928752)">
<text
   transform="translate(397.5569,43.8668)"
   font-family="Arial"
   text-anchor="middle"
   font-size="18px"
   id="text143">Apache Spark</text>
</g>
<g
   enable-background="new    "
   id="g149"
   transform="translate(-30.054068,-24.589692)">
<text
   transform="translate(540.4426,152.1422)"
   font-family="Arial"
   text-anchor="middle"
   font-size="18px"
   id="text147">Apache Zamza</text>
</g>
<g
   enable-background="new    "
   id="g153">
<text
   transform="matrix(1 0 0 1 478.1419 552.139)"
   font-family="Arial"
   text-anchor="middle"
   font-size="18"
   id="text151">Google Cloud Dataflow</text>
</g>
<g
   enable-background="new    "
   id="g157">
<text
   transform="matrix(1 0 0 1 82.4123 545.3763)"
   font-family="Arial"
   text-anchor="middle"
   font-size="18"
   id="text155">Hazelcast Jet</text>
</g>































<path
   style="fill:#ffccaa;stroke-width:0.683047"
   d="m 170.93479,538.62457 c -36.39027,-6.83192 -57.10307,-30.70707 -60.56513,-69.81198 -2.11558,-23.89601 4.34826,-55.2352 18.03624,-87.44666 2.39563,-5.63756 3.88771,-9.99858 3.53062,-10.31926 -0.34015,-0.30548 -3.69216,-2.97484 -7.44892,-5.93193 -36.406522,-28.65699 -63.889484,-61.41323 -77.030387,-91.81056 -6.19377,-14.32732 -8.618387,-24.38083 -9.142597,-37.90911 -0.306714,-7.91538 -0.137495,-10.68045 0.982345,-16.0516 2.938075,-14.09207 9.180666,-25.42723 19.39325,-35.21385 17.428392,-16.70146 43.123779,-26.17638 78.775279,-29.04761 9.84274,-0.79269 33.67011,-0.53818 41.66587,0.44505 l 3.41523,0.41998 2.63493,-7.74775 c 4.15179,-12.20798 10.35261,-27.23796 16.44105,-39.85096 27.13228,-56.208031 63.23885,-91.705011 99.74658,-98.062558 7.46745,-1.3004013 21.30061,-0.4874462 28.56658,1.678817 35.4902,10.580979 62.6999,50.205378 76.38747,111.240011 l 2.2594,10.07495 4.12456,0.003 c 5.95281,0.004 21.9316,1.23061 31.44644,2.41397 24.29062,3.02102 43.93943,7.62244 63.18185,14.79613 58.47588,21.80016 84.31175,61.16724 68.86967,104.93933 -5.60816,15.89688 -15.4788,30.10329 -32.18628,46.32439 -12.77847,12.40647 -25.0728,21.49489 -48.12376,35.57487 -0.65235,0.39847 -0.20789,2.77154 1.88862,10.08377 5.52824,19.28138 9.86786,42.02901 11.66244,61.1327 1.03489,11.01658 1.03179,34.52592 -0.005,43.71501 -8.3344,73.8115 -55.36244,103.87181 -119.2478,76.22303 -18.80867,-8.14015 -42.00333,-23.53478 -59.36115,-39.39886 l -3.84521,-3.5143 -9.03812,6.11399 c -35.96157,24.32681 -70.15829,39.35339 -104.80957,46.05497 -9.89186,1.9131 -34.02808,2.41824 -42.20404,0.88329 z"
   id="path256" /><text
   xml:space="preserve"
   style="font-style:normal;font-weight:normal;font-size:40px;line-height:1.25;font-family:sans-serif;fill:#000000;fill-opacity:1;stroke:none"
   x="172.8109"
   y="279.36621"
   id="text260"><tspan
     sodipodi:role="line"
     id="tspan258"
     x="172.8109"
     y="279.36621">Apache Beam</tspan><tspan
     sodipodi:role="line"
     x="172.8109"
     y="329.36621"
     id="tspan262">Direct Runner</tspan></text></svg>
